<!-- Generator: Adobe Illustrator 24.1.1, SVG Export Plug-In  -->
<svg version="1.1" xmlns="http://www.w3.org/2000/svg" xmlns:xlink="http://www.w3.org/1999/xlink" x="0px" y="0px" width="499.4px"
	 height="185px" viewBox="0 0 499.4 185" style="enable-background:new 0 0 499.4 185;" xml:space="preserve">
<style type="text/css">
	.st0{fill:#24C0D1;}
	.st1{fill:#FFFFFF;}
</style>
<defs>
</defs>
<g>
	<g id="icon_1_">
		<path id="path36_1_" class="st0" d="M37.2,63.2c-2.4-2.4-2.4-6.3,0-8.7s6.3-2.4,8.7,0c2.4,2.4,2.4,6.3,0,8.7
			C43.5,65.6,39.6,65.6,37.2,63.2"/>
		<path id="path38_1_" class="st0" d="M54.7,63.2c-2.4-2.4-2.4-6.3,0-8.7s6.3-2.4,8.7,0s2.4,6.3,0,8.7C61,65.6,57.1,65.6,54.7,63.2"
			/>
		<path id="path40_1_" class="st0" d="M28.4,63.2c-2.4,2.4-6.3,2.4-8.7,0s-2.4-6.3,0-8.7s6.3-2.4,8.7,0S30.8,60.8,28.4,63.2"/>
		<path id="path42_1_" class="st0" d="M28.4,45.9c-2.4,2.4-6.3,2.4-8.7,0s-2.4-6.3,0-8.7s6.3-2.4,8.7,0
			C30.8,39.6,30.8,43.5,28.4,45.9"/>
		<path id="path44_1_" class="st0" d="M28.4,28.4c-2.4,2.4-6.3,2.4-8.7,0s-2.4-6.3,0-8.7s6.3-2.4,8.7,0C30.8,22.1,30.8,26,28.4,28.4
			"/>
		<path id="path46_1_" class="st0" d="M45.9,45.9c-2.4,2.4-6.3,2.4-8.7,0c-2.4-2.4-2.4-6.3,0-8.7s6.3-2.4,8.7,0
			C48.3,39.6,48.3,43.5,45.9,45.9"/>
		<path id="path48_1_" class="st0" d="M45.9,28.4c-2.4,2.4-6.3,2.4-8.7,0c-2.4-2.4-2.4-6.3,0-8.7s6.3-2.4,8.7,0
			C48.3,22.1,48.3,26,45.9,28.4"/>
		<path id="path50_1_" class="st0" d="M63.4,28.4c-2.4,2.4-6.3,2.4-8.7,0c-2.4-2.4-2.4-6.3,0-8.7s6.3-2.4,8.7,0
			C65.8,22.1,65.8,26,63.4,28.4"/>
		<path id="path52_1_" class="st0" d="M63.4,45.9c-2.4,2.4-6.3,2.4-8.7,0c-2.4-2.4-2.4-6.3,0-8.7s6.3-2.4,8.7,0
			C65.8,39.6,65.8,43.5,63.4,45.9"/>
		<path id="path54_1_" class="st0" d="M81.4,45.9c-2.4,2.4-6.3,2.4-8.7,0c-2.4-2.4-2.4-6.3,0-8.7s6.3-2.4,8.7,0
			C83.8,39.6,83.8,43.5,81.4,45.9"/>
		<path id="path56_1_" class="st0" d="M45.9,10.5c-2.4,2.4-6.3,2.4-8.7,0c-2.4-2.4-2.4-6.3,0-8.7l0,0c2.4-2.4,6.3-2.4,8.7,0l0,0
			C48.3,4.2,48.3,8.1,45.9,10.5"/>
		<path id="path58_1_" class="st0" d="M10.5,45.9c-2.4,2.4-6.3,2.4-8.7,0s-2.4-6.3,0-8.7s6.3-2.4,8.7,0S12.9,43.5,10.5,45.9"/>
	</g>
	<path class="st1" d="M51,183.4H32.1V79.2H51V183.4z"/>
	<path class="st1" d="M83,183.4H64.5v-78.2h17.6v13.3H83c3.6-8.7,11.6-14.3,23.3-14.3c16.1,0,26.8,10.7,26.8,29.4v49.8h-18.4v-46.9
		c0-10.4-5.7-16.7-15.2-16.7c-9.7,0-16.5,6.5-16.5,17.8L83,183.4L83,183.4z"/>
	<path class="st1" d="M185.3,119.5h-16.2v63.9h-18.4v-63.9h-11.6v-14.2h11.6v-7.4c0-15.8,10.8-23.6,24.4-23.6c6.4,0,11.6,1.3,14,2.1
		l-3.7,14.2c-1.5-0.5-4-1.1-6.9-1.1c-6.9,0-9.4,3.4-9.4,9.5v6.2h16.2L185.3,119.5L185.3,119.5z"/>
	<path class="st1" d="M193.6,105.3h17.9v13h0.8c2.8-9.1,10.3-14.1,19.3-14.1c2,0,4.9,0.2,6.6,0.5v16.9c-1.6-0.5-5.4-1.1-8.5-1.1
		c-10.1,0-17.6,7-17.6,16.9v46h-18.4v-78.1H193.6z"/>
	<path class="st0" d="M239.1,161.5c0-17.6,14.5-22.1,29.7-23.8c13.8-1.5,19.3-1.7,19.3-7v-0.3c0-7.7-4.7-12.1-13.2-12.1
		c-9,0-14.2,4.6-16,9.9l-17.2-2.4c4.1-14.2,16.7-21.6,33.1-21.6c14.9,0,31.8,6.2,31.8,26.9v52.3h-17.7v-10.7h-0.6
		c-3.4,6.6-10.7,12.3-23,12.3C250.4,185,239.1,176.9,239.1,161.5z M288.2,155.4v-9.2c-2.4,1.9-12.1,3.2-16.9,3.8
		c-8.2,1.2-14.4,4.1-14.4,11.2c0,6.8,5.5,10.3,13.2,10.3C281.2,171.5,288.2,164.1,288.2,155.4z"/>
	<path class="st0" d="M318.3,79.2h18.4v39h0.8c2.8-5.6,8.5-13.9,22.3-13.9c18.1,0,32.3,14.1,32.3,40.2c0,25.8-13.8,40.4-32.2,40.4
		c-13.4,0-19.5-8-22.4-13.7h-1v12.3h-18.1V79.2H318.3z M354.8,169.7c12.2,0,18.6-10.7,18.6-25.3s-6.3-25-18.6-25
		c-11.9,0-18.4,9.8-18.4,25S343,169.7,354.8,169.7z"/>
	<path class="st0" d="M418.7,183.4h-18.4V79.2h18.4V183.4z"/>
	<path class="st0" d="M426.7,144.8c0-24.1,14.6-40.6,37-40.6c19.2,0,35.7,12.1,35.7,39.5v5.6h-54.5c0.2,13.4,8,21.2,19.9,21.2
		c7.9,0,14-3.5,16.5-10.1l17.2,1.9c-3.3,13.6-15.8,22.5-34,22.5C441.1,184.9,426.7,169.3,426.7,144.8z M481.7,137
		c-0.1-10.6-7.2-18.4-17.8-18.4c-11,0-18.4,8.4-18.9,18.4H481.7z"/>
</g>
</svg>
